 <svg  version="1.0" xmlns="http://www.w3.org/2000/svg"  width="288.000000pt" height="288.000000pt" viewBox="0 0 288.000000 288.000000"  preserveAspectRatio="xMidYMid meet">  <g transform="translate(0.000000,288.000000) scale(0.100000,-0.100000)" fill="#ffffff" stroke="none"> <path d="M387 2113 c-32 -31 -37 -43 -37 -83 0 -40 5 -52 37 -83 l36 -37 1007 0 1007 0 36 37 c32 31 37 43 37 83 0 40 -5 52 -37 83 l-36 37 -1007 0 -1007 0 -36 -37z"/> <path d="M387 1513 c-32 -31 -37 -43 -37 -83 0 -40 5 -52 37 -83 l36 -37 767 0 767 0 36 37 c32 31 37 43 37 83 0 40 -5 52 -37 83 l-36 37 -767 0 -767 0 -36 -37z"/> <path d="M387 913 c-32 -31 -37 -43 -37 -83 0 -40 5 -52 37 -83 l36 -37 1007 0 1007 0 36 37 c32 31 37 43 37 83 0 40 -5 52 -37 83 l-36 37 -1007 0 -1007 0 -36 -37z"/> </g> </svg> 